<svg width="117" height="22" viewBox="0 0 117 22" fill="none" xmlns="http://www.w3.org/2000/svg">
<path d="M7.39547 1.632H5.52347V-1.43051e-06H12.5555V16.368H14.4515V21.6H12.5315V18H1.99547V21.6H0.0754688V16.368H2.16347L7.39547 1.632ZM10.6115 1.632H9.26747L4.08347 16.368H10.6115V1.632ZM18.6078 18C17.7918 18 17.2158 17.816 16.8798 17.448C16.5438 17.064 16.3758 16.536 16.3758 15.864V8.136C16.3758 7.496 16.5198 6.984 16.8078 6.6C17.1118 6.2 17.7118 6 18.6078 6H23.0478C23.9278 6 24.5198 6.2 24.8238 6.6C25.1278 6.984 25.2798 7.496 25.2798 8.136V15.864C25.2798 16.536 25.1118 17.064 24.7758 17.448C24.4398 17.816 23.8638 18 23.0478 18H18.6078ZM18.3198 16.368H23.3358V7.632H18.3198V16.368ZM37.1047 21.288V18H28.6327V21.288H26.9527V16.392H28.6087L32.1607 7.68H30.5047V6H37.0807V16.392H38.8327V21.288H37.1047ZM35.2807 7.68H33.9847L30.4567 16.392H35.2807V7.68ZM42.7484 18C41.9324 18 41.3564 17.816 41.0204 17.448C40.6844 17.064 40.5164 16.536 40.5164 15.864V8.136C40.5164 7.496 40.6604 6.984 40.9484 6.6C41.2524 6.2 41.8524 6 42.7484 6H47.1884C48.0684 6 48.6604 6.2 48.9644 6.6C49.2684 6.984 49.4204 7.496 49.4204 8.136V15.864C49.4204 16.536 49.2524 17.064 48.9164 17.448C48.5804 17.816 48.0044 18 47.1884 18H42.7484ZM42.4604 16.368H47.4764V7.632H42.4604V16.368ZM63.9333 1.632V16.368H65.4453V18H60.5013V16.368H61.9653V1.632H55.5333V16.368H56.9973V18H52.0533V16.368H53.5653V1.632H52.0533V-1.43051e-06H65.4453V1.632H63.9333ZM69.3989 16.368H71.2709V7.704H69.1589V9.936H67.4789V6H76.9589V9.936H75.3269V7.704H73.1669V16.368H75.0389V18H69.3989V16.368ZM89.1344 16.368H90.6704V18H87.2624V9.144L82.0064 18H78.6464V16.32H80.1824V7.68H78.6464V6H82.0304V14.784L87.2624 6H90.6704V7.68H89.1344V16.368ZM103.242 18H92.8261V16.32H94.3621V7.632H92.8261V6H97.6261V7.632H96.2341V16.32H101.346V7.632H99.9541V6H104.73V7.632H103.194V16.32H104.97V21.216H103.242V18ZM116.683 16.368V18H108.331C107.515 18 106.971 17.84 106.699 17.52C106.427 17.232 106.291 16.688 106.291 15.888V15C106.291 14.424 106.363 14.032 106.507 13.824C106.715 13.52 107.187 13.144 107.923 12.696L113.203 9.408V7.632H108.499V9.024H106.963V6H112.963C113.779 6 114.347 6.176 114.667 6.528C115.003 6.88 115.171 7.392 115.171 8.064V16.368H116.683ZM113.203 11.328L108.211 14.448V16.368H113.203V11.328Z" fill="#FF7A00"/>
</svg>
